STARTFONT 2.1
FONT -Monotype-Times New Roman-Bold-R-Normal--36-360-75-75-P-180-iso8859-9
SIZE 36 75 75
FONTBOUNDINGBOX 46 43 -7 -8

STARTPROPERTIES 24
FOUNDRY "Monotype"
FAMILY_NAME "Times New Roman"
WEIGHT_NAME "Bold"
SLANT "R"
SETWIDTH_NAME "Normal"
ADD_STYLE_NAME ""
PIXEL_SIZE 36
POINT_SIZE 360
RESOLUTION_X 75
RESOLUTION_Y 75
SPACING "P"
AVERAGE_WIDTH 180
CHARSET_REGISTRY "iso8859"
CHARSET_ENCODING "9"
FACE_NAME "Times New Roman Bold ISO Latin5"
_DEC_DEVICE_FONTNAMES "PS=timesnewroman-b-lat5"
COPYRIGHT "Copyright (c) 1993 Monotype Typography Ltd."
CAP_HEIGHT 28
X_HEIGHT 19
WEIGHT 10
QUAD_WIDTH 23
DEFAULT_CHAR 160
FONT_DESCENT 8
FONT_ASCENT 35
ENDPROPERTIES

CHARS 191

STARTCHAR space
ENCODING 32
SWIDTH 333 0
DWIDTH 13 0
BBX 0 0 0 0
BITMAP
ENDCHAR

STARTCHAR exclam
ENCODING 33
SWIDTH 333 0
DWIDTH 13 0
BBX 6 26 3 0
BITMAP
78
FC
FC
FC
FC
FC
FC
78
78
78
78
30
30
30
30
30
10
00
00
00
78
FC
FC
FC
FC
38
ENDCHAR

STARTCHAR quotedbl
ENCODING 34
SWIDTH 555 0
DWIDTH 21 0
BBX 14 12 4 14
BITMAP
7038
F87C
F87C
F87C
F87C
F87C
7038
7038
7038
7038
2010
2010
ENDCHAR

STARTCHAR numbersign
ENCODING 35
SWIDTH 500 0
DWIDTH 19 0
BBX 17 26 1 0
BITMAP
030300
030300
070700
070700
060600
060600
060600
0E0E00
FFFF80
FFFF80
0C0C00
0C1C00
1C1C00
1C1C00
1C1800
181800
FFFF80
FFFF80
383800
303000
303000
307000
707000
707000
606000
606000
ENDCHAR

STARTCHAR dollar
ENCODING 36
SWIDTH 500 0
DWIDTH 19 0
BBX 16 29 2 -2
BITMAP
0180
07E0
1FBC
399E
718E
F186
F182
F982
FD80
FF80
7F80
7FC0
3FF0
1FF8
07FC
03FE
01FE
01BF
01BF
819F
C18F
C18F
C18E
E18E
F19C
7EF8
0FC0
0180
0180
ENDCHAR

STARTCHAR percent
ENCODING 37
SWIDTH 1000 0
DWIDTH 38 0
BBX 33 26 3 0
BITMAP
0F8001C000
3DE0018000
38E0038000
78F0070000
78F0060000
F8F80E0000
F8F80C0000
F8F8180000
F8F8380000
78F0300000
78F0600000
38E0E00000
1DE0C00000
0F8180F800
000383DE00
0003078F00
0007078F00
000E078F80
000C0F8F80
001C0F8F80
00380F8F80
0030078F80
0070078F00
00E0078F00
00C003DE00
01C000F800
ENDCHAR

STARTCHAR ampersand
ENCODING 38
SWIDTH 833 0
DWIDTH 32 0
BBX 29 26 2 0
BITMAP
000F8000
003FE000
00F1F000
00E0F000
01E0F000
01E0F000
01F0E000
01F0E000
01FB8000
01FE0000
00FC0FF0
03FC03C0
0F7E0380
1C7F0300
3C3F0300
783F8600
781FC600
FC0FEC00
FC0FF800
FC07F800
FE03FC08
FF01FF10
7FC3FFE0
3FFF7FE0
1FFC3FC0
07E00F00
ENDCHAR

STARTCHAR quoteright
ENCODING 39
SWIDTH 333 0
DWIDTH 13 0
BBX 7 12 3 14
BITMAP
38
7C
FE
FE
7E
76
06
06
0C
08
10
60
ENDCHAR

STARTCHAR parenleft
ENCODING 40
SWIDTH 333 0
DWIDTH 13 0
BBX 11 33 2 -7
BITMAP
0020
00C0
0380
0700
0E00
0E00
1C00
3C00
3C00
7C00
7800
7800
F800
F800
F800
F800
F800
F800
F800
F800
F800
7800
7800
7800
3C00
3C00
1C00
1C00
0E00
0600
0300
0180
0060
ENDCHAR

STARTCHAR parenright
ENCODING 41
SWIDTH 333 0
DWIDTH 13 0
BBX 11 33 0 -7
BITMAP
8000
6000
3800
1C00
0E00
0F00
0700
0780
0780
03C0
03C0
03C0
03E0
03E0
03E0
03E0
03E0
03E0
03E0
03E0
03E0
03C0
03C0
03C0
07C0
0780
0780
0700
0E00
1C00
1800
3000
E000
ENDCHAR

STARTCHAR asterisk
ENCODING 42
SWIDTH 500 0
DWIDTH 19 0
BBX 14 14 3 12
BITMAP
0300
0780
0780
0780
E31C
F33C
F97C
7FF8
0300
0CC0
1CE0
3CF0
3C70
3870
ENDCHAR

STARTCHAR plus
ENCODING 43
SWIDTH 570 0
DWIDTH 22 0
BBX 20 20 1 3
BITMAP
006000
006000
006000
006000
006000
006000
006000
006000
006000
FFFFF0
FFFFF0
006000
006000
006000
006000
006000
006000
006000
006000
006000
ENDCHAR

STARTCHAR comma
ENCODING 44
SWIDTH 250 0
DWIDTH 10 0
BBX 7 12 1 -6
BITMAP
38
7C
FE
FE
7E
76
06
06
0C
08
10
60
ENDCHAR

STARTCHAR minus
ENCODING 45
SWIDTH 570 0
DWIDTH 22 0
BBX 20 2 1 12
BITMAP
FFFFF0
FFFFF0
ENDCHAR

STARTCHAR period
ENCODING 46
SWIDTH 250 0
DWIDTH 10 0
BBX 6 6 2 0
BITMAP
78
FC
FC
FC
FC
78
ENDCHAR

STARTCHAR slash
ENCODING 47
SWIDTH 278 0
DWIDTH 11 0
BBX 11 26 0 0
BITMAP
00E0
00C0
01C0
01C0
0180
0380
0380
0300
0700
0700
0600
0E00
0E00
0C00
1C00
1C00
1C00
1800
3800
3800
3000
7000
7000
6000
E000
E000
ENDCHAR

STARTCHAR zero
ENCODING 48
SWIDTH 500 0
DWIDTH 19 0
BBX 17 26 1 0
BITMAP
03E000
0E3800
1E1C00
3C1E00
3C1E00
7C1F00
7C1F00
7C1F00
7C1F00
FC1F80
FC1F80
FC1F80
FC1F80
FC1F80
FC1F80
FC1F80
FC1F80
7C1F00
7C1F00
7C1F00
3C1F00
3C1E00
1C1E00
1E1C00
0E3800
03E000
ENDCHAR

STARTCHAR one
ENCODING 49
SWIDTH 500 0
DWIDTH 19 0
BBX 14 26 2 0
BITMAP
0040
03C0
0FC0
3FC0
CFC0
07C0
07C0
07C0
07C0
07C0
07C0
07C0
07C0
07C0
07C0
07C0
07C0
07C0
07C0
07C0
07C0
07C0
07C0
07C0
0FE0
7FFC
ENDCHAR

STARTCHAR two
ENCODING 50
SWIDTH 500 0
DWIDTH 19 0
BBX 16 26 1 0
BITMAP
07E0
0FF8
1FFC
3FFE
71FE
607E
407E
003E
003E
003E
003C
003C
0078
0070
00E0
00E0
01C0
0380
0300
0601
0C03
1FFF
1FFF
3FFE
7FFE
FFFE
ENDCHAR

STARTCHAR three
ENCODING 51
SWIDTH 500 0
DWIDTH 19 0
BBX 16 26 1 0
BITMAP
01E0
07F8
1FFC
1FFE
30FE
407E
003E
003C
003C
0078
0070
01FC
07FE
01FF
007F
003F
001F
001F
000F
000F
000E
F00E
F81C
FC38
7FE0
1F00
ENDCHAR

STARTCHAR four
ENCODING 52
SWIDTH 500 0
DWIDTH 19 0
BBX 16 26 1 0
BITMAP
001C
001C
003C
007C
00FC
00FC
01BC
037C
067C
067C
0C7C
187C
307C
307C
607C
C07C
FFFF
FFFF
FFFF
FFFF
007C
007C
007C
007C
007C
007C
ENDCHAR

STARTCHAR five
ENCODING 53
SWIDTH 500 0
DWIDTH 19 0
BBX 16 26 1 0
BITMAP
0FFF
0FFF
0FFE
1FFE
1FFC
3000
2000
3800
7FC0
7FF0
7FF8
FFFC
FFFE
01FE
007F
001F
000F
000F
0007
0007
0006
7006
FC0C
FE18
7FF0
1F80
ENDCHAR

STARTCHAR six
ENCODING 54
SWIDTH 500 0
DWIDTH 19 0
BBX 16 26 1 0
BITMAP
0003
003C
00F0
03C0
0780
0F80
1F00
1E00
3E00
3E00
7DF0
7FFC
7C7E
FC3E
FC3F
FC1F
FC1F
FC1F
FC1F
7C1F
7C1F
7C1E
3E1E
1E3C
0F38
07E0
ENDCHAR

STARTCHAR seven
ENCODING 55
SWIDTH 500 0
DWIDTH 19 0
BBX 17 26 1 0
BITMAP
3FFF80
3FFF80
3FFF00
7FFF00
7FF700
600E00
400E00
800E00
001C00
001C00
001C00
003800
003800
003800
007000
007000
007000
00E000
00E000
00E000
01C000
01C000
01C000
038000
038000
038000
ENDCHAR

STARTCHAR eight
ENCODING 56
SWIDTH 500 0
DWIDTH 19 0
BBX 17 26 1 0
BITMAP
07F000
0E3C00
3C1E00
3C0F00
7C0F00
7C0F00
7E0F00
7E0F00
7F0E00
7F9E00
3FFC00
1FF000
0FF800
07FE00
1EFE00
3CFF00
783F80
781F80
F81F80
F80F80
F80F80
780F00
780F00
3C1E00
1E3C00
07F000
ENDCHAR

STARTCHAR nine
ENCODING 57
SWIDTH 500 0
DWIDTH 19 0
BBX 16 26 2 0
BITMAP
0FE0
1CF0
3C78
783C
783E
F83E
F83E
F83F
F83F
F83F
FC3F
FC3F
7C3F
7E3E
3FFE
0FBE
003C
007C
0078
00F8
00F0
01E0
07C0
0F00
3C00
C000
ENDCHAR

STARTCHAR colon
ENCODING 58
SWIDTH 333 0
DWIDTH 13 0
BBX 6 18 3 0
BITMAP
78
FC
FC
FC
FC
78
00
00
00
00
00
00
78
FC
FC
FC
FC
78
ENDCHAR

STARTCHAR semicolon
ENCODING 59
SWIDTH 333 0
DWIDTH 13 0
BBX 7 24 3 -6
BITMAP
3C
7E
7E
7E
7E
3C
00
00
00
00
00
00
38
7C
FE
FE
7E
76
06
06
0C
08
10
60
ENDCHAR

STARTCHAR less
ENCODING 60
SWIDTH 570 0
DWIDTH 22 0
BBX 20 19 1 3
BITMAP
000010
000070
0001F0
000FE0
003F00
01FC00
07E000
3F8000
F60000
F80000
FE0000
1F8000
07F000
00FC00
003F80
0007E0
0001F0
000070
000010
ENDCHAR

STARTCHAR equal
ENCODING 61
SWIDTH 570 0
DWIDTH 22 0
BBX 20 8 1 9
BITMAP
FFFFF0
FFFFF0
000000
000000
000000
000000
FFFFF0
FFFFF0
ENDCHAR

STARTCHAR greater
ENCODING 62
SWIDTH 570 0
DWIDTH 22 0
BBX 20 19 1 3
BITMAP
800000
E00000
F80000
7E0000
1FC000
03F000
00FE00
001F80
0007F0
0001F0
0007E0
003F80
00FC00
07F000
1FC000
FE0000
F80000
C00000
800000
ENDCHAR

STARTCHAR question
ENCODING 63
SWIDTH 500 0
DWIDTH 19 0
BBX 15 26 2 0
BITMAP
0FE0
31F8
70FC
707C
F87E
F87E
F87E
707E
007C
0078
00F0
00E0
01C0
0100
0300
0200
0200
0000
0000
0000
0780
0FC0
0FC0
0FC0
0FC0
0380
ENDCHAR

STARTCHAR at
ENCODING 64
SWIDTH 930 0
DWIDTH 35 0
BBX 33 34 2 -8
BITMAP
0007FC0000
003C070000
00E000C000
0180002000
0700001000
0E00000800
0C00000C00
1800000400
3803CF0400
30072F0200
700E2F0200
601E3E0200
603C3E0200
E03C3E0200
C0783C0200
C0787C0200
C0F87C0600
C0F07C0400
C0F0F80400
C1F0F80800
C1F1780800
C1F3781000
41F6F03000
61FCF06180
60F8F98100
30707E0200
3000000200
1800000400
0C00000800
0C00003000
0300006000
0180018000
00700F0000
000FF80000
ENDCHAR

STARTCHAR A
ENCODING 65
SWIDTH 722 0
DWIDTH 27 0
BBX 27 26 0 0
BITMAP
00040000
00060000
00060000
000F0000
000F0000
001F8000
001F8000
003F8000
002FC000
006FC000
006FE000
0047E000
00C7F000
0083F000
0183F800
0101F800
0301F800
03FFFC00
0600FC00
0600FE00
04007E00
0C007F00
08003F00
18003F80
3C003FC0
FF81FFE0
ENDCHAR

STARTCHAR B
ENCODING 66
SWIDTH 667 0
DWIDTH 25 0
BBX 23 26 1 0
BITMAP
FFFF80
1F8FE0
1F87F0
1F83F8
1F81F8
1F81F8
1F81F8
1F81F8
1F81F8
1F83F0
1F87E0
1FBE00
1FFF80
1F8FE0
1F83F8
1F81FC
1F80FC
1F80FE
1F80FE
1F80FE
1F80FE
1F80FC
1F81FC
1F83F8
1FCFF0
FFFF80
ENDCHAR

STARTCHAR C
ENCODING 67
SWIDTH 722 0
DWIDTH 27 0
BBX 24 26 1 0
BITMAP
001F81
00FFF1
03F01F
07C00F
0F8007
1F8003
3F0001
3F0001
7E0001
7E0000
7E0000
FE0000
FE0000
FE0000
FE0000
FE0000
7E0000
7E0000
7F0000
3F0000
3F8001
1F8003
0FC00E
07F03C
01FFF0
003F80
ENDCHAR

STARTCHAR D
ENCODING 68
SWIDTH 722 0
DWIDTH 27 0
BBX 26 26 0 0
BITMAP
FFFFC000
0FC7F000
0FC0F800
0FC07C00
0FC07E00
0FC03F00
0FC03F80
0FC01F80
0FC01F80
0FC01FC0
0FC01FC0
0FC01FC0
0FC01FC0
0FC01FC0
0FC01FC0
0FC01FC0
0FC01FC0
0FC01F80
0FC01F80
0FC03F80
0FC03F00
0FC03E00
0FC07E00
0FC0F800
0FE3F000
FFFF8000
ENDCHAR

STARTCHAR E
ENCODING 69
SWIDTH 667 0
DWIDTH 25 0
BBX 23 26 0 0
BITMAP
FFFFF8
0FC0F8
0FC038
0FC018
0FC008
0FC008
0FC108
0FC108
0FC100
0FC300
0FC300
0FC700
0FFF00
0FFF00
0FC700
0FC300
0FC300
0FC100
0FC102
0FC102
0FC006
0FC006
0FC00C
0FC01C
0FE0FC
FFFFFC
ENDCHAR

STARTCHAR F
ENCODING 70
SWIDTH 611 0
DWIDTH 23 0
BBX 22 26 0 0
BITMAP
FFFFFC
0FC0FC
0FC01C
0FC00C
0FC00C
0FC004
0FC084
0FC080
0FC080
0FC180
0FC180
0FC780
0FFF80
0FCF80
0FC380
0FC180
0FC080
0FC080
0FC080
0FC000
0FC000
0FC000
0FC000
0FC000
1FE000
FFFC00
ENDCHAR

STARTCHAR G
ENCODING 71
SWIDTH 778 0
DWIDTH 30 0
BBX 28 26 1 0
BITMAP
007FE080
01F87D80
07E00F80
0FC00780
1F800380
1F000180
3F000180
7F000080
7E000080
7E000000
FE000000
FE000000
FE000000
FE000000
FE000000
FE01FFF0
7E003F80
7E001F80
7F001F80
3F001F80
3F001F80
1F801F80
0F801F80
07E01F80
01F87F00
007FF800
ENDCHAR

STARTCHAR H
ENCODING 72
SWIDTH 778 0
DWIDTH 30 0
BBX 29 26 0 0
BITMAP
FFFDFFF8
1FE03FC0
0FC01F80
0FC01F80
0FC01F80
0FC01F80
0FC01F80
0FC01F80
0FC01F80
0FC01F80
0FC01F80
0FC01F80
0FFFFF80
0FFFFF80
0FC01F80
0FC01F80
0FC01F80
0FC01F80
0FC01F80
0FC01F80
0FC01F80
0FC01F80
0FC01F80
0FC01F80
1FE03FC0
FFFDFFF8
ENDCHAR

STARTCHAR I
ENCODING 73
SWIDTH 389 0
DWIDTH 15 0
BBX 14 26 0 0
BITMAP
FFFC
1FE0
0FC0
0FC0
0FC0
0FC0
0FC0
0FC0
0FC0
0FC0
0FC0
0FC0
0FC0
0FC0
0FC0
0FC0
0FC0
0FC0
0FC0
0FC0
0FC0
0FC0
0FC0
0FC0
1FE0
FFFC
ENDCHAR

STARTCHAR J
ENCODING 74
SWIDTH 500 0
DWIDTH 19 0
BBX 19 26 0 0
BITMAP
07FFE0
00FF00
007E00
007E00
007E00
007E00
007E00
007E00
007E00
007E00
007E00
007E00
007E00
007E00
007E00
007E00
007E00
007E00
787E00
F87E00
F87E00
F87E00
F87C00
70FC00
39F800
0FE000
ENDCHAR

STARTCHAR K
ENCODING 75
SWIDTH 778 0
DWIDTH 30 0
BBX 30 26 0 0
BITMAP
FFF81FF0
1FE007C0
0FC00780
0FC00600
0FC00C00
0FC03800
0FC07000
0FC0E000
0FC18000
0FC30000
0FCF0000
0FDF8000
0FDF8000
0FFFC000
0FCFE000
0FCFF000
0FC7F800
0FC3F800
0FC1FC00
0FC0FE00
0FC0FF00
0FC07F00
0FC03F80
0FC03FC0
1FE03FE0
FFF87FFC
ENDCHAR

STARTCHAR L
ENCODING 76
SWIDTH 667 0
DWIDTH 25 0
BBX 24 26 0 0
BITMAP
FFFC00
1FE000
0FC000
0FC000
0FC000
0FC000
0FC000
0FC000
0FC000
0FC000
0FC000
0FC000
0FC000
0FC000
0FC000
0FC000
0FC000
0FC001
0FC003
0FC002
0FC002
0FC006
0FC00E
0FC01E
0FE07E
FFFFFE
ENDCHAR

STARTCHAR M
ENCODING 77
SWIDTH 944 0
DWIDTH 36 0
BBX 35 26 0 0
BITMAP
FFE000FFE0
1FE000FF00
0FF001BE00
0BF001BE00
0BF0017E00
0BF8037E00
09F8027E00
09FC067E00
08FC067E00
08FC047E00
087E0C7E00
087E087E00
087F187E00
083F107E00
083F907E00
081FB07E00
081FA07E00
081FE07E00
080FC07E00
080FC07E00
0807C07E00
0807807E00
0803807E00
0C03007E00
1C0300FF00
FF8107FFE0
ENDCHAR

STARTCHAR N
ENCODING 78
SWIDTH 722 0
DWIDTH 27 0
BBX 27 26 0 0
BITMAP
FF803FE0
3FC00700
1FE00200
0FF00200
0FF80200
0BF80200
0BFC0200
09FE0200
08FF0200
087F8200
083F8200
081FC200
081FE200
080FF200
0807FA00
0803FA00
0801FE00
0801FE00
0800FE00
08007E00
08003E00
08001E00
08001E00
0C000E00
1C000600
FF800200
ENDCHAR

STARTCHAR O
ENCODING 79
SWIDTH 778 0
DWIDTH 30 0
BBX 27 26 1 0
BITMAP
007FC000
01F0F000
07C07C00
0F803E00
1F001F00
3F001F80
3F001F80
7E000FC0
7E000FC0
7E000FE0
FE000FE0
FE000FE0
FE000FE0
FE000FE0
FE000FE0
FE000FE0
7E000FC0
7E000FC0
7E000FC0
3F001F80
3F001F80
1F801F00
0F803E00
07C07C00
01F1F000
007FC000
ENDCHAR

STARTCHAR P
ENCODING 80
SWIDTH 611 0
DWIDTH 23 0
BBX 21 26 1 0
BITMAP
FFFF00
1F8FC0
1F87E0
1F83F0
1F81F8
1F81F8
1F81F8
1F81F8
1F81F8
1F83F8
1F83F0
1F87E0
1F8FC0
1FFF00
1F8000
1F8000
1F8000
1F8000
1F8000
1F8000
1F8000
1F8000
1F8000
1F8000
3FC000
FFF800
ENDCHAR

STARTCHAR Q
ENCODING 81
SWIDTH 778 0
DWIDTH 30 0
BBX 27 33 1 -7
BITMAP
007FC000
01F1F000
07C07C00
0F803E00
1F001F00
3F001F80
3F001F80
7E000FC0
7E000FC0
7E000FE0
FE000FE0
FE000FE0
FE000FE0
FE000FE0
FE000FE0
FE000FE0
7E000FC0
7E000FC0
7E000FC0
3F001F80
3F001F80
1F801F00
0F803E00
07C07C00
03E0F800
007FE000
001F8000
001FC000
000FC000
0007E000
0003F800
0001FFC0
00003F00
ENDCHAR

STARTCHAR R
ENCODING 82
SWIDTH 722 0
DWIDTH 27 0
BBX 27 26 1 0
BITMAP
FFFFE000
1F83F000
1F81FC00
1F80FC00
1F807E00
1F807E00
1F807E00
1F807E00
1F807E00
1F807E00
1F80FC00
1F81F800
1F87F000
1FFF8000
1F9FC000
1F8FE000
1F8FE000
1F87F000
1F83F800
1F81FC00
1F81FC00
1F80FE00
1F807F00
1F807F00
3FC03F80
FFF81FE0
ENDCHAR

STARTCHAR S
ENCODING 83
SWIDTH 556 0
DWIDTH 21 0
BBX 18 26 2 0
BITMAP
0FF100
1E3F00
380F00
700300
F00300
F00100
F80100
FC0100
FF0000
7FC000
7FF000
3FF800
1FFE00
0FFF00
03FF80
00FF80
003FC0
800FC0
8007C0
C003C0
C003C0
E00380
F00380
F80700
FE1E00
87F800
ENDCHAR

STARTCHAR T
ENCODING 84
SWIDTH 667 0
DWIDTH 25 0
BBX 22 26 2 0
BITMAP
FFFFFC
F0FC3C
C0FC0C
C0FC0C
80FC04
80FC04
80FC04
00FC00
00FC00
00FC00
00FC00
00FC00
00FC00
00FC00
00FC00
00FC00
00FC00
00FC00
00FC00
00FC00
00FC00
00FC00
00FC00
00FC00
01FE00
0FFFC0
ENDCHAR

STARTCHAR U
ENCODING 85
SWIDTH 722 0
DWIDTH 27 0
BBX 26 26 0 0
BITMAP
FFF83FC0
1FE00F00
0FC00600
0FC00600
0FC00600
0FC00600
0FC00600
0FC00600
0FC00600
0FC00600
0FC00600
0FC00600
0FC00600
0FC00600
0FC00600
0FC00600
0FC00600
0FC00600
0FC00600
0FC00400
0FC00C00
07E00C00
07E01800
03F03000
01FFE000
003F8000
ENDCHAR

STARTCHAR V
ENCODING 86
SWIDTH 722 0
DWIDTH 27 0
BBX 27 26 0 0
BITMAP
FFF01FE0
3FC007C0
1F800380
1FC00300
0FC00200
0FE00600
07E00400
07E00C00
03F00C00
03F00800
03F81800
01F81000
01FC3000
00FC2000
00FC6000
007E4000
007EC000
007FC000
003F8000
003F8000
001F0000
001F0000
000E0000
000E0000
000C0000
00040000
ENDCHAR

STARTCHAR W
ENCODING 87
SWIDTH 1000 0
DWIDTH 38 0
BBX 38 26 0 0
BITMAP
FFE3FFC1FC
3F80FE0070
1F807E0030
1F807F0060
1FC03F0060
0FC03F0040
0FE03F80C0
07E01F80C0
07E01F8080
07F03FC180
03F02FC100
03F86FE100
01F847E300
01F8C7E200
01FCC7F600
00FC83F600
00FF83FC00
007F01FC00
007F01F800
003E01F800
003E00F800
003E00F000
001C007000
001C006000
0008006000
0008002000
ENDCHAR

STARTCHAR X
ENCODING 88
SWIDTH 722 0
DWIDTH 27 0
BBX 27 26 0 0
BITMAP
7FF87FE0
1FE01F00
0FE00E00
0FE00C00
07F01800
03F81800
03F83000
01FC6000
01FEC000
00FF8000
007F0000
007F8000
003F8000
001FC000
001FE000
003FE000
0027F000
0067F800
00C3F800
0181FC00
0301FE00
0300FE00
06007F00
0E007F80
3E007FC0
FFC1FFE0
ENDCHAR

STARTCHAR Y
ENCODING 89
SWIDTH 722 0
DWIDTH 27 0
BBX 26 26 1 0
BITMAP
FFF01FC0
3F800780
3F800700
1FC00600
0FC00400
0FE00C00
07E01800
07F01800
03F03000
03F82000
01FC6000
01FC4000
00FEC000
00FF8000
007F0000
003F0000
003F0000
003F0000
003F0000
003F0000
003F0000
003F0000
003F0000
003F0000
007F8000
03FFF000
ENDCHAR

STARTCHAR Z
ENCODING 90
SWIDTH 667 0
DWIDTH 25 0
BBX 24 26 1 0
BITMAP
3FFFFC
3E03F8
3803F8
3007F0
200FE0
200FE0
201FC0
001FC0
003F80
007F00
007F00
00FE00
00FE00
01FC00
01F800
03F800
07F000
07F001
0FE003
0FE002
1FC002
3F8006
3F800E
7F001E
7E01FE
FFFFFE
ENDCHAR

STARTCHAR bracketleft
ENCODING 91
SWIDTH 333 0
DWIDTH 13 0
BBX 8 32 4 -6
BITMAP
FF
F8
F0
F0
F0
F0
F0
F0
F0
F0
F0
F0
F0
F0
F0
F0
F0
F0
F0
F0
F0
F0
F0
F0
F0
F0
F0
F0
F0
F0
F8
FF
ENDCHAR

STARTCHAR backslash
ENCODING 92
SWIDTH 278 0
DWIDTH 11 0
BBX 11 26 0 0
BITMAP
E000
E000
6000
7000
7000
3000
3800
3800
1800
1C00
1C00
1C00
0E00
0E00
0E00
0600
0700
0700
0300
0380
0380
0180
01C0
01C0
00C0
00E0
ENDCHAR

STARTCHAR bracketright
ENCODING 93
SWIDTH 333 0
DWIDTH 13 0
BBX 8 32 1 -6
BITMAP
FF
1F
0F
0F
0F
0F
0F
0F
0F
0F
0F
0F
0F
0F
0F
0F
0F
0F
0F
0F
0F
0F
0F
0F
0F
0F
0F
0F
0F
0F
1F
FF
ENDCHAR

STARTCHAR asciicircum
ENCODING 94
SWIDTH 581 0
DWIDTH 22 0
BBX 16 13 3 13
BITMAP
0180
01C0
03C0
07E0
0760
0E70
0E30
1C38
181C
381C
700E
700E
E007
ENDCHAR

STARTCHAR underscore
ENCODING 95
SWIDTH 500 0
DWIDTH 19 0
BBX 19 2 0 -5
BITMAP
FFFFE0
FFFFE0
ENDCHAR

STARTCHAR quoteleft
ENCODING 96
SWIDTH 333 0
DWIDTH 13 0
BBX 7 13 3 13
BITMAP
04
18
30
60
60
C0
C0
FC
FE
FE
FE
7C
38
ENDCHAR

STARTCHAR a
ENCODING 97
SWIDTH 500 0
DWIDTH 19 0
BBX 16 18 2 0
BITMAP
0FE0
38F8
707C
F87C
F87C
F87C
787C
01FC
077C
1E7C
3C7C
787C
F87C
F87C
FCFC
FFBF
7F7F
3C3C
ENDCHAR

STARTCHAR b
ENCODING 98
SWIDTH 556 0
DWIDTH 21 0
BBX 18 26 1 0
BITMAP
FE0000
7E0000
3E0000
3E0000
3E0000
3E0000
3E0000
3E0000
3E7C00
3EFF00
3F1F80
3E0F80
3E0FC0
3E07C0
3E07C0
3E07C0
3E07C0
3E07C0
3E07C0
3E07C0
3E0780
3E0780
3E0F00
3F0F00
3B1E00
31F800
ENDCHAR

STARTCHAR c
ENCODING 99
SWIDTH 444 0
DWIDTH 17 0
BBX 15 18 1 0
BITMAP
07E0
1EF8
3C7C
787C
787C
783C
F800
F800
F800
F800
FC00
FC00
7E00
7E06
3F0C
3FF8
1FF0
07C0
ENDCHAR

STARTCHAR d
ENCODING 100
SWIDTH 556 0
DWIDTH 21 0
BBX 18 26 2 0
BITMAP
007F00
003F00
001F00
001F00
001F00
001F00
001F00
001F00
0F9F00
1FDF00
3C7F00
7C3F00
781F00
F81F00
F81F00
F81F00
F81F00
F81F00
F81F00
F81F00
F81F00
7C1F00
7C3F00
3E6F80
3FDFC0
0F9C00
ENDCHAR

STARTCHAR e
ENCODING 101
SWIDTH 444 0
DWIDTH 17 0
BBX 15 18 1 0
BITMAP
07E0
1E70
3C38
3C3C
783C
783E
783E
FFFE
F800
FC00
7C00
7C00
7E02
7E04
3F0C
3FF8
0FF0
07C0
ENDCHAR

STARTCHAR f
ENCODING 102
SWIDTH 333 0
DWIDTH 13 0
BBX 14 26 1 0
BITMAP
01F8
073C
0F3C
1F3C
1F18
1F00
1F00
1F00
FFC0
FFC0
1F00
1F00
1F00
1F00
1F00
1F00
1F00
1F00
1F00
1F00
1F00
1F00
1F00
1F00
3F80
FFC0
ENDCHAR

STARTCHAR g
ENCODING 103
SWIDTH 500 0
DWIDTH 19 0
BBX 17 26 1 -8
BITMAP
0FC000
3C7F80
7C7B80
783C00
F83C00
F83E00
F83E00
F83E00
F83E00
783C00
3C7C00
1C7800
07E000
180000
300000
780000
7FFC00
7FFF00
7FFF80
1FFF80
781F80
E00380
E00380
F00700
781E00
1FF800
ENDCHAR

STARTCHAR h
ENCODING 104
SWIDTH 556 0
DWIDTH 21 0
BBX 19 26 1 0
BITMAP
FE0000
7E0000
3E0000
3E0000
3E0000
3E0000
3E0000
3E0000
3E7E00
3EFF00
3F9F80
3F0F80
3E0F80
3E0F80
3E0F80
3E0F80
3E0F80
3E0F80
3E0F80
3E0F80
3E0F80
3E0F80
3E0F80
3E0F80
7F1FC0
FFBFE0
ENDCHAR

STARTCHAR i
ENCODING 105
SWIDTH 278 0
DWIDTH 11 0
BBX 9 26 1 0
BITMAP
1800
3C00
7E00
7E00
3C00
1800
0000
0000
FE00
7E00
3E00
3E00
3E00
3E00
3E00
3E00
3E00
3E00
3E00
3E00
3E00
3E00
3E00
3E00
7F00
FF80
ENDCHAR

STARTCHAR j
ENCODING 106
SWIDTH 333 0
DWIDTH 13 0
BBX 10 34 -1 -8
BITMAP
0300
0780
0FC0
07C0
0780
0300
0000
0000
1FC0
0FC0
07C0
07C0
07C0
07C0
07C0
07C0
07C0
07C0
07C0
07C0
07C0
07C0
07C0
07C0
07C0
07C0
07C0
07C0
07C0
E7C0
E7C0
E780
F780
3E00
ENDCHAR

STARTCHAR k
ENCODING 107
SWIDTH 556 0
DWIDTH 21 0
BBX 20 26 1 0
BITMAP
FE0000
7E0000
3E0000
3E0000
3E0000
3E0000
3E0000
3E0000
3E1FE0
3E0780
3E0600
3E0C00
3E0800
3E1000
3E3000
3E7800
3EF800
3FFC00
3E7E00
3E7E00
3E3F00
3E1F80
3E1F80
3E0FC0
7F0FE0
FF9FF0
ENDCHAR

STARTCHAR l
ENCODING 108
SWIDTH 278 0
DWIDTH 11 0
BBX 9 26 1 0
BITMAP
FE00
7E00
3E00
3E00
3E00
3E00
3E00
3E00
3E00
3E00
3E00
3E00
3E00
3E00
3E00
3E00
3E00
3E00
3E00
3E00
3E00
3E00
3E00
3E00
7F00
FF80
ENDCHAR

STARTCHAR m
ENCODING 109
SWIDTH 833 0
DWIDTH 32 0
BBX 29 18 2 0
BITMAP
FE3C0F00
7EFF3FC0
3F9FE7E0
3F0FC3E0
3E0F83E0
3E0F83E0
3E0F83E0
3E0F83E0
3E0F83E0
3E0F83E0
3E0F83E0
3E0F83E0
3E0F83E0
3E0F83E0
3E0F83E0
3E0F83E0
7F1FC7F0
FFBFEFF8
ENDCHAR

STARTCHAR n
ENCODING 110
SWIDTH 556 0
DWIDTH 21 0
BBX 19 18 1 0
BITMAP
FE3C00
7EFF00
3F9F80
3F0F80
3E0F80
3E0F80
3E0F80
3E0F80
3E0F80
3E0F80
3E0F80
3E0F80
3E0F80
3E0F80
3E0F80
3E0F80
7F1FC0
FFBFE0
ENDCHAR

STARTCHAR o
ENCODING 111
SWIDTH 500 0
DWIDTH 19 0
BBX 16 18 2 0
BITMAP
07E0
1E78
3C3C
7C3E
781E
F81F
F81F
F81F
F81F
F81F
F81F
F81F
F81F
7C1E
7C3E
3C3C
1E78
07E0
ENDCHAR

STARTCHAR p
ENCODING 112
SWIDTH 556 0
DWIDTH 21 0
BBX 18 26 1 -8
BITMAP
FE7C00
7EFF00
3F9F80
3F0F80
3E0FC0
3E07C0
3E07C0
3E07C0
3E07C0
3E07C0
3E07C0
3E07C0
3E07C0
3E0780
3F0F80
3F9F00
3EFE00
3E7C00
3E0000
3E0000
3E0000
3E0000
3E0000
3E0000
7F0000
FFC000
ENDCHAR

STARTCHAR q
ENCODING 113
SWIDTH 556 0
DWIDTH 21 0
BBX 18 26 2 -8
BITMAP
07E100
1E3700
3C3F00
3C1F00
7C1F00
781F00
F81F00
F81F00
F81F00
F81F00
F81F00
F81F00
F81F00
7C1F00
7C1F00
3E7F00
3FDF00
0F9F00
001F00
001F00
001F00
001F00
001F00
001F00
003F80
007FC0
ENDCHAR

STARTCHAR r
ENCODING 114
SWIDTH 444 0
DWIDTH 17 0
BBX 15 18 1 0
BITMAP
FE1C
7E7E
3EFE
3EDE
3F0C
3F00
3F00
3E00
3E00
3E00
3E00
3E00
3E00
3E00
3E00
3E00
7F00
FF80
ENDCHAR

STARTCHAR s
ENCODING 115
SWIDTH 389 0
DWIDTH 15 0
BBX 12 18 1 0
BITMAP
1F60
79E0
70E0
F060
F820
FC20
FF00
7F80
3FC0
1FE0
0FF0
07F0
81F0
C1F0
C0F0
E0E0
79C0
5F80
ENDCHAR

STARTCHAR t
ENCODING 116
SWIDTH 333 0
DWIDTH 13 0
BBX 11 24 1 0
BITMAP
0200
0200
0600
0E00
1E00
3E00
7FE0
FFE0
3E00
3E00
3E00
3E00
3E00
3E00
3E00
3E00
3E00
3E00
3E00
3E00
3E20
3F60
1FC0
0F80
ENDCHAR

STARTCHAR u
ENCODING 117
SWIDTH 556 0
DWIDTH 21 0
BBX 19 18 1 0
BITMAP
FE3F80
7E1F80
3E0F80
3E0F80
3E0F80
3E0F80
3E0F80
3E0F80
3E0F80
3E0F80
3E0F80
3E0F80
3E0F80
3E0F80
3E1F80
3F3F80
1FEFC0
070FE0
ENDCHAR

STARTCHAR v
ENCODING 118
SWIDTH 500 0
DWIDTH 19 0
BBX 19 18 0 0
BITMAP
FFC7E0
3F0180
3F0180
1F0100
1F8300
0F8200
0FC600
07C400
07E400
07EC00
03E800
03F800
01F000
01F000
00E000
00E000
006000
004000
ENDCHAR

STARTCHAR w
ENCODING 119
SWIDTH 722 0
DWIDTH 27 0
BBX 27 18 0 0
BITMAP
FF9FF3E0
3F0FC0C0
3F07C080
1F07E180
1F87E100
0F8DE100
0F8BF300
0FC9F200
07D9F200
07D1FE00
07F0FC00
03F0FC00
03E07C00
01E07800
01C07800
01C03000
00C03000
00803000
ENDCHAR

STARTCHAR x
ENCODING 120
SWIDTH 500 0
DWIDTH 19 0
BBX 17 18 1 0
BITMAP
FFBF80
7F0E00
3F0800
1F9800
1F9000
0FE000
0FC000
07E000
07E000
03F000
01F000
03F800
06F800
04FC00
087C00
187E00
387F00
FEFF80
ENDCHAR

STARTCHAR y
ENCODING 121
SWIDTH 500 0
DWIDTH 19 0
BBX 18 26 0 -8
BITMAP
FF87C0
7F0380
3F0100
1F0300
1F8300
1F8200
0F8600
0FC400
07C400
07EC00
03E800
03F800
01F000
01F000
01F000
00E000
00E000
004000
004000
00C000
308000
788000
790000
7B0000
7E0000
3C0000
ENDCHAR

STARTCHAR z
ENCODING 122
SWIDTH 444 0
DWIDTH 17 0
BBX 15 18 1 0
BITMAP
7FFE
707E
40FC
40FC
41F8
03F0
03F0
07E0
07E0
0FC0
0FC0
1F80
3F02
3F02
7E06
7E06
FC1E
FFFE
ENDCHAR

STARTCHAR braceleft
ENCODING 123
SWIDTH 394 0
DWIDTH 15 0
BBX 11 33 2 -7
BITMAP
00E0
0380
0F00
0E00
1E00
1E00
1E00
1E00
1F00
0F00
0F00
0F00
0F00
0E00
1C00
3800
E000
7000
1C00
0E00
0E00
0F00
0F00
0F00
1F00
1F00
1E00
1E00
1E00
1E00
0E00
0700
03E0
ENDCHAR

STARTCHAR bar
ENCODING 124
SWIDTH 220 0
DWIDTH 8 0
BBX 2 34 3 -8
BITMAP
C0
C0
C0
C0
C0
C0
C0
C0
C0
C0
C0
C0
C0
C0
C0
C0
C0
C0
C0
C0
C0
C0
C0
C0
C0
C0
C0
C0
C0
C0
C0
C0
C0
C0
ENDCHAR

STARTCHAR braceright
ENCODING 125
SWIDTH 394 0
DWIDTH 15 0
BBX 11 33 2 -7
BITMAP
E000
3800
1E00
0E00
0F00
0F00
0F00
1F00
1F00
1F00
1E00
1E00
1E00
0E00
0700
0380
0060
01C0
0700
0E00
0E00
1E00
1E00
1E00
1F00
1F00
0F00
0F00
0F00
0F00
0E00
1C00
F800
ENDCHAR

STARTCHAR asciitilde
ENCODING 126
SWIDTH 520 0
DWIDTH 20 0
BBX 18 7 1 9
BITMAP
1E0040
3FC0C0
7FF0C0
FFFF80
C3FF80
80FF00
801E00
ENDCHAR

STARTCHAR space
ENCODING 160
SWIDTH 333 0
DWIDTH 14 0
BBX 0 0 0 0
BITMAP
ENDCHAR

STARTCHAR exclamdown
ENCODING 161
SWIDTH 333 0
DWIDTH 13 0
BBX 6 26 3 -8
BITMAP
78
FC
FC
FC
FC
38
00
00
00
10
30
30
30
30
38
78
78
78
78
FC
FC
FC
FC
FC
FC
78
ENDCHAR

STARTCHAR cent
ENCODING 162
SWIDTH 500 0
DWIDTH 19 0
BBX 15 32 2 -6
BITMAP
000C
0008
0008
0018
0010
0010
0020
0020
07E0
1EF8
3C7C
78FC
78BC
79BC
F900
F900
FB00
FA00
FE00
FC00
7E00
7E06
3F0C
3FF8
1FF0
17C0
3000
2000
2000
6000
4000
C000
ENDCHAR

STARTCHAR sterling
ENCODING 163
SWIDTH 500 0
DWIDTH 19 0
BBX 18 26 1 0
BITMAP
01F800
039E00
071E00
0F1F00
0F1F00
1F1F00
1F0E00
1F8000
1F8000
1F8000
1F8000
FFF800
FFF800
FFF800
0F8000
0F8000
078000
078000
078000
0380C0
7F8180
FFFF80
C7FF80
87FF00
CCFE00
783C00
ENDCHAR

STARTCHAR currency
ENCODING 164
SWIDTH 500 0
DWIDTH 19 0
BBX 18 18 1 4
BITMAP
400080
E3F1C0
7FFF80
3E1F00
380700
300300
700380
600180
600180
600180
600180
700380
300300
380700
3E1F00
7FFD80
E3F1C0
400080
ENDCHAR

STARTCHAR yen
ENCODING 165
SWIDTH 500 0
DWIDTH 19 0
BBX 19 26 0 0
BITMAP
FF83E0
7F01C0
3E0180
3F0180
1F0100
1F0300
1F8200
0F8200
0FC600
0FC400
07C400
07EC00
03E800
03E800
FFFFE0
01F000
01F000
01F000
01F000
FFFFE0
01F000
01F000
01F000
01F000
03F800
1FFF00
ENDCHAR

STARTCHAR brokenbar
ENCODING 166
SWIDTH 220 0
DWIDTH 8 0
BBX 2 34 3 -8
BITMAP
C0
C0
C0
C0
C0
C0
C0
C0
C0
C0
C0
00
00
00
00
00
00
00
00
00
00
00
00
C0
C0
C0
C0
C0
C0
C0
C0
C0
C0
C0
ENDCHAR

STARTCHAR section
ENCODING 167
SWIDTH 500 0
DWIDTH 19 0
BBX 15 34 2 -8
BITMAP
0FE0
1C78
3838
703C
703C
783C
7C10
7E00
3F00
1F80
0FE0
1FF0
33F8
61FC
E07E
E03E
F01E
F01E
F80E
7E0E
7F0C
3F98
1FF0
0FE0
03F0
01F8
007C
103C
783C
781C
781C
3838
1C70
0FE0
ENDCHAR

STARTCHAR dieresis
ENCODING 168
SWIDTH 333 0
DWIDTH 13 0
BBX 12 5 0 21
BITMAP
70E0
F9F0
F9F0
F9F0
70E0
ENDCHAR

STARTCHAR copyright
ENCODING 169
SWIDTH 747 0
DWIDTH 28 0
BBX 26 26 1 0
BITMAP
003F0000
01FFE000
07807000
0E001C00
1C000E00
183F2600
30F0E300
61E06180
63C02180
43C02080
C78000C0
C78000C0
C78000C0
C78000C0
C78000C0
C78000C0
43C00080
63C02180
61E06180
30F0C300
303F0300
18000E00
0E001C00
07807000
01FFE000
003F0000
ENDCHAR

STARTCHAR ordfeminine
ENCODING 170
SWIDTH 300 0
DWIDTH 11 0
BBX 11 11 0 15
BITMAP
3F00
6380
E3C0
F3C0
63C0
1DC0
33C0
73C0
F3C0
FDE0
71C0
ENDCHAR

STARTCHAR guillemotleft
ENCODING 171
SWIDTH 500 0
DWIDTH 19 0
BBX 17 18 1 0
BITMAP
018080
030180
070300
060700
0E0E00
1C1E00
3C3C00
787C00
F8F800
F87800
787C00
3C3C00
1C1E00
0E0E00
060700
070300
030180
018080
ENDCHAR

STARTCHAR logicalnot
ENCODING 172
SWIDTH 570 0
DWIDTH 22 0
BBX 20 8 1 9
BITMAP
FFFFF0
FFFFF0
000030
000030
000030
000030
000030
000030
ENDCHAR

STARTCHAR hyphen
ENCODING 173
SWIDTH 333 0
DWIDTH 13 0
BBX 11 4 1 7
BITMAP
FFE0
FFE0
FFE0
FFE0
ENDCHAR

STARTCHAR registered
ENCODING 174
SWIDTH 747 0
DWIDTH 28 0
BBX 27 26 1 0
BITMAP
003F0000
01FFF000
07803800
0E000E00
1C000700
39FF8380
30F1E180
60F0F0C0
60F0F0C0
40F0F040
C0F0F060
C0F1E060
C0FFC060
C0F78060
C0F3C060
40F3C060
60F1E0C0
60F1E0C0
30F0F180
33FCF980
18000300
0C000600
06001C00
03807800
00FFE000
003F0000
ENDCHAR

STARTCHAR macron
ENCODING 175
SWIDTH 333 0
DWIDTH 13 0
BBX 12 4 0 21
BITMAP
FFF0
FFF0
FFF0
FFF0
ENDCHAR

STARTCHAR degree
ENCODING 176
SWIDTH 400 0
DWIDTH 15 0
BBX 12 13 2 13
BITMAP
0F00
3FC0
7FE0
70E0
E070
C030
C030
C030
E070
70E0
7FE0
3FC0
0F00
ENDCHAR

STARTCHAR plusminus
ENCODING 177
SWIDTH 570 0
DWIDTH 22 0
BBX 20 20 1 3
BITMAP
006000
006000
006000
006000
006000
006000
006000
006000
006000
FFFFF0
FFFFF0
006000
006000
006000
006000
006000
006000
006000
FFFFF0
FFFFF0
ENDCHAR

STARTCHAR twosuperior
ENCODING 178
SWIDTH 300 0
DWIDTH 11 0
BBX 10 14 1 12
BITMAP
1C00
7F00
FF80
8780
0780
0700
0700
0600
0C00
1800
30C0
7F80
FF80
FF80
ENDCHAR

STARTCHAR threesuperior
ENCODING 179
SWIDTH 300 0
DWIDTH 11 0
BBX 10 13 0 13
BITMAP
1F00
3F80
C780
0380
0200
0700
1F80
07C0
01C0
01C0
4180
F300
7E00
ENDCHAR

STARTCHAR acute
ENCODING 180
SWIDTH 333 0
DWIDTH 13 0
BBX 8 6 4 20
BITMAP
3F
3E
3C
78
70
E0
ENDCHAR

STARTCHAR mu
ENCODING 181
SWIDTH 556 0
DWIDTH 21 0
BBX 20 25 1 -7
BITMAP
7C1F00
7C1F00
7C1F00
7C1F00
7C1F00
7C1F00
7C1F00
7C1F00
7C1F00
7C1F00
7C1F00
7C1F00
7C1F10
7C3F10
7E3FA0
7FEFE0
7F8FC0
6F0780
600000
E00000
F00000
F00000
F00000
F00000
F00000
ENDCHAR

STARTCHAR paragraph
ENCODING 182
SWIDTH 540 0
DWIDTH 21 0
BBX 20 33 0 -7
BITMAP
07FFF0
1FF180
3FF180
7FF180
7FF180
FFF180
FFF180
FFF180
FFF180
FFF180
FFF180
7FF180
7FF180
3FF180
1FF180
0FF180
01F180
003180
003180
003180
003180
003180
003180
003180
003180
003180
003180
003180
003180
003180
003180
003180
003180
ENDCHAR

STARTCHAR periodcentered
ENCODING 183
SWIDTH 250 0
DWIDTH 10 0
BBX 6 6 2 10
BITMAP
78
FC
FC
FC
FC
78
ENDCHAR

STARTCHAR cedilla
ENCODING 184
SWIDTH 333 0
DWIDTH 13 0
BBX 8 8 2 -8
BITMAP
0C
1C
3F
1F
0F
0F
3E
F8
ENDCHAR

STARTCHAR onesuperior
ENCODING 185
SWIDTH 300 0
DWIDTH 11 0
BBX 8 13 2 13
BITMAP
0C
3C
FC
3C
3C
3C
3C
3C
3C
3C
3C
3C
FF
ENDCHAR

STARTCHAR ordmasculine
ENCODING 186
SWIDTH 330 0
DWIDTH 13 0
BBX 11 11 1 15
BITMAP
1F00
3B80
71C0
F1E0
F1E0
F1E0
F1E0
F1E0
71C0
3B80
1F00
ENDCHAR

STARTCHAR guillemotright
ENCODING 187
SWIDTH 500 0
DWIDTH 19 0
BBX 17 18 1 0
BITMAP
80C000
C06000
607000
703800
383800
3C1C00
1E1E00
1F0F00
0F8F80
0F8F80
1F0F00
1E1E00
3C1C00
383800
703000
607000
C06000
80C000
ENDCHAR

STARTCHAR onequarter
ENCODING 188
SWIDTH 750 0
DWIDTH 29 0
BBX 26 26 2 0
BITMAP
0C000E00
3C001C00
FC001800
3C003000
3C007000
3C006000
3C00C000
3C01C000
3C018000
3C030000
3C070000
3C060000
FF0C0000
001C0300
00180700
00300F00
00701F00
00603700
00C02700
01C04700
01808700
0300FFC0
0700FFC0
06000700
0E000700
1C000700
ENDCHAR

STARTCHAR onehalf
ENCODING 189
SWIDTH 750 0
DWIDTH 29 0
BBX 26 26 2 0
BITMAP
0C000C00
3C001800
FC003800
3C003000
3C006000
3C00E000
3C00C000
3C018000
3C038000
3C030000
3C060000
3C0E0000
FF0C0000
00183E00
00387F00
0030CF80
00608780
00E00780
00C00700
01800600
03800C00
03001800
060030C0
0E007F80
0C007F80
1800FF80
ENDCHAR

STARTCHAR threequarters
ENCODING 190
SWIDTH 750 0
DWIDTH 29 0
BBX 28 26 0 0
BITMAP
1F000380
3F800700
C7800E00
03800C00
02001C00
07003800
1F803000
07C07000
01C0E000
01C0C000
4181C000
F3038000
7E0300C0
000701C0
000E01C0
000C03C0
001C06C0
00380DC0
003019C0
006031C0
00E021C0
00C07FF0
01807FF0
038001C0
030001C0
060001C0
ENDCHAR

STARTCHAR questiondown
ENCODING 191
SWIDTH 500 0
DWIDTH 19 0
BBX 15 26 2 -8
BITMAP
03C0
07E0
07E0
07E0
07E0
01C0
0000
0000
0000
0080
0080
0180
0100
0700
0F00
3E00
3E00
7C00
FC1C
FC3E
FC3E
FC1E
7C1C
7E1C
3F38
0FE0
ENDCHAR

STARTCHAR Agrave
ENCODING 192
SWIDTH 722 0
DWIDTH 27 0
BBX 27 33 0 0
BITMAP
00FC0000
003C0000
001E0000
000E0000
00060000
00030000
00000000
00040000
00060000
00060000
000F0000
000F0000
001F8000
001F8000
003F8000
002FC000
006FC000
006FE000
0047E000
00C7F000
0083F000
0183F800
0101F800
0301F800
03FFFC00
0600FC00
0400FE00
04007E00
0C007F00
08003F00
18003F80
3C003F80
FF81FFE0
ENDCHAR

STARTCHAR Aacute
ENCODING 193
SWIDTH 722 0
DWIDTH 27 0
BBX 27 33 0 0
BITMAP
0007E000
0007C000
00078000
000F0000
000E0000
000C0000
00000000
00040000
00060000
00060000
000F0000
000F0000
001F8000
001F8000
003F8000
002FC000
006FC000
006FE000
0047E000
00C7F000
0083F000
0183F800
0101F800
0301F800
03FFFC00
0600FC00
0400FE00
04007E00
0C007F00
08003F00
18003F80
3C003F80
FF81FFE0
ENDCHAR

STARTCHAR Acircumflex
ENCODING 194
SWIDTH 722 0
DWIDTH 27 0
BBX 27 34 0 0
BITMAP
001F0000
001F8000
003F8000
003DC000
0079C000
0060E000
00C07000
00000000
00040000
00060000
00060000
000F0000
000F0000
001F8000
001F8000
003F8000
002FC000
006FC000
006FE000
0047E000
00C7F000
0083F000
0183F800
0101F800
0301F800
03FFFC00
0600FC00
0400FE00
04007E00
0C007F00
08003F00
18003F80
3C003F80
FF81FFE0
ENDCHAR

STARTCHAR Atilde
ENCODING 195
SWIDTH 722 0
DWIDTH 27 0
BBX 27 33 0 0
BITMAP
007C1000
007F3000
00FFE000
00DFE000
0087C000
00000000
00000000
00040000
00060000
00060000
000F0000
000F0000
001F8000
001F8000
003F8000
002FC000
006FC000
006FE000
0047E000
00C7F000
0083F000
0183F800
0101F800
0301F800
03FFFC00
0600FC00
0400FE00
04007E00
0C007F00
08003F00
18003F80
3C003F80
FF81FFE0
ENDCHAR

STARTCHAR Adieresis
ENCODING 196
SWIDTH 722 0
DWIDTH 27 0
BBX 26 33 1 0
BITMAP
00E1C000
01F3E000
01F3E000
01F3E000
00E1C000
00000000
00000000
00040000
000C0000
000C0000
001E0000
001E0000
001F0000
003F0000
003F8000
006F8000
005FC000
00CFC000
008FC000
0187E000
0107E000
0303F000
0303F000
0201F800
07FFF800
0401FC00
0C00FC00
0800FC00
1800FE00
18007E00
38007F00
78007F80
FF03FFC0
ENDCHAR

STARTCHAR Aring
ENCODING 197
SWIDTH 722 0
DWIDTH 27 0
BBX 27 34 0 0
BITMAP
001F0000
00318000
00208000
00208000
00308000
00318000
001F0000
00000000
00040000
00060000
000E0000
000E0000
001F0000
001F0000
001F8000
003F8000
002FC000
006FC000
004FC000
00C7E000
00C7E000
0083F000
0183F000
0103F800
0301F800
03FFF800
0600FC00
0400FC00
0C00FE00
0C007E00
18007F00
18003F00
3C007F80
FF81FFE0
ENDCHAR

STARTCHAR AE
ENCODING 198
SWIDTH 1000 0
DWIDTH 38 0
BBX 37 26 0 0
BITMAP
000FFFFFE0
0001FF03E0
0001BF00E0
0001BF0060
00033F0060
00023F0020
00063F0420
000C3F0400
000C3F0400
00183F0C00
00103F0C00
00303F3C00
00603FFC00
007FFF3C00
00C03F0C00
00803F0C00
01803F0400
03003F0408
02003F0408
06003F0010
04003F0010
0C003F0030
18003F0070
18003F00F0
38003F87F0
FF07FFFFF0
ENDCHAR

STARTCHAR Ccedilla
ENCODING 199
SWIDTH 722 0
DWIDTH 27 0
BBX 24 33 2 -7
BITMAP
003F81
00FFE3
03F03F
07C00F
0F8007
1F8003
3F0003
3F0001
7E0001
7E0000
FE0000
FE0000
FE0000
FE0000
FE0000
FE0000
FE0000
7E0000
7F0000
3F0000
3F8002
1F8002
0FC00E
07F03C
01FFF0
002F80
001800
001E00
003F00
000F00
000F00
001E00
00FC00
ENDCHAR

STARTCHAR Egrave
ENCODING 200
SWIDTH 667 0
DWIDTH 25 0
BBX 23 34 0 0
BITMAP
03F000
00F000
007800
003800
001800
000C00
000000
000000
FFFFF8
0FC0F8
0FC038
0FC018
0FC008
0FC008
0FC108
0FC108
0FC100
0FC300
0FC300
0FC700
0FFF00
0FDF00
0FC700
0FC300
0FC100
0FC100
0FC102
0FC102
0FC006
0FC006
0FC00C
0FC01C
0FE0FC
FFFFFC
ENDCHAR

STARTCHAR Eacute
ENCODING 201
SWIDTH 667 0
DWIDTH 25 0
BBX 23 34 0 0
BITMAP
001F80
001F00
001E00
001C00
003800
003000
000000
000000
FFFFF8
0FC0F8
0FC038
0FC018
0FC008
0FC008
0FC108
0FC108
0FC100
0FC300
0FC300
0FC700
0FFF00
0FDF00
0FC700
0FC300
0FC100
0FC100
0FC102
0FC102
0FC006
0FC006
0FC00C
0FC01C
0FE0FC
FFFFFC
ENDCHAR

STARTCHAR Ecircumflex
ENCODING 202
SWIDTH 667 0
DWIDTH 25 0
BBX 23 35 0 0
BITMAP
003C00
007E00
007E00
00FF00
01E700
01C380
0301C0
000000
000000
FFFFF8
0FC0F8
0FC038
0FC018
0FC008
0FC008
0FC108
0FC108
0FC100
0FC300
0FC300
0FC700
0FFF00
0FDF00
0FC700
0FC300
0FC100
0FC100
0FC102
0FC102
0FC006
0FC006
0FC00C
0FC01C
0FE0FC
FFFFFC
ENDCHAR

STARTCHAR Edieresis
ENCODING 203
SWIDTH 667 0
DWIDTH 25 0
BBX 23 33 0 0
BITMAP
01C380
03E7C0
03E7C0
03E7C0
008300
000000
000000
FFFFFC
0FC0FC
0FC03C
0FC01C
0FC00C
0FC00C
0FC104
0FC104
0FC100
0FC300
0FC300
0FC700
0FFF00
0FDF00
0FC700
0FC300
0FC100
0FC100
0FC102
0FC102
0FC002
0FC006
0FC00E
0FC01E
0FE0FC
FFFFFC
ENDCHAR

STARTCHAR Igrave
ENCODING 204
SWIDTH 389 0
DWIDTH 15 0
BBX 14 34 0 0
BITMAP
7E00
1E00
0F00
0700
0300
0180
0180
0000
FFFC
1FE0
0FC0
0FC0
0FC0
0FC0
0FC0
0FC0
0FC0
0FC0
0FC0
0FC0
0FC0
0FC0
0FC0
0FC0
0FC0
0FC0
0FC0
0FC0
0FC0
0FC0
0FC0
0FC0
1FE0
FFFC
ENDCHAR

STARTCHAR Iacute
ENCODING 205
SWIDTH 389 0
DWIDTH 15 0
BBX 14 34 0 0
BITMAP
01F8
01E0
03C0
0380
0300
0600
0600
0000
FFFC
1FE0
0FC0
0FC0
0FC0
0FC0
0FC0
0FC0
0FC0
0FC0
0FC0
0FC0
0FC0
0FC0
0FC0
0FC0
0FC0
0FC0
0FC0
0FC0
0FC0
0FC0
0FC0
0FC0
1FE0
FFFC
ENDCHAR

STARTCHAR Icircumflex
ENCODING 206
SWIDTH 389 0
DWIDTH 15 0
BBX 14 34 0 0
BITMAP
07C0
0FC0
1FE0
1CE0
3870
3030
6018
0000
FFFC
1FE0
0FC0
0FC0
0FC0
0FC0
0FC0
0FC0
0FC0
0FC0
0FC0
0FC0
0FC0
0FC0
0FC0
0FC0
0FC0
0FC0
0FC0
0FC0
0FC0
0FC0
0FC0
0FC0
1FE0
FFFC
ENDCHAR

STARTCHAR Idieresis
ENCODING 207
SWIDTH 389 0
DWIDTH 15 0
BBX 14 33 0 0
BITMAP
3870
7CF8
7CF8
7CF8
3870
0000
0000
FFFC
1FE0
0FC0
0FC0
0FC0
0FC0
0FC0
0FC0
0FC0
0FC0
0FC0
0FC0
0FC0
0FC0
0FC0
0FC0
0FC0
0FC0
0FC0
0FC0
0FC0
0FC0
0FC0
0FC0
1FE0
FFFC
ENDCHAR

STARTCHAR Gbreve
ENCODING 208
SWIDTH 778 0
DWIDTH 30 0
BBX 28 33 1 0
BITMAP
00C03000
00606000
007FE000
003FC000
001F8000
00060000
00000000
007FE080
01F87D80
03E00F80
0FC00780
1F800380
1F000180
3F000180
7F000080
7E000080
7E000000
FE000000
FE000000
FE000000
FE000000
FE000000
FE00FFF0
FE003FC0
7E001F80
7E001F80
3F001F80
3F001F80
1F801F80
0F801F80
07E01F80
01F87F00
007FF800
ENDCHAR

STARTCHAR Ntilde
ENCODING 209
SWIDTH 722 0
DWIDTH 27 0
BBX 27 33 0 0
BITMAP
007C2000
00FF2000
00FFE000
019FE000
01078000
00000000
00000000
FF803FE0
3FC00700
1FE00300
0FF00200
0FF80200
0BF80200
0BFC0200
09FE0200
08FF0200
087F8200
083F8200
083FC200
081FE200
080FF200
0807FA00
0803FA00
0803FE00
0801FE00
0800FE00
08007E00
08003E00
08001E00
08001E00
1C000E00
1C000600
FF800200
ENDCHAR

STARTCHAR Ograve
ENCODING 210
SWIDTH 778 0
DWIDTH 30 0
BBX 27 34 1 0
BITMAP
00FC0000
007C0000
003C0000
001E0000
000E0000
00060000
00030000
00000000
007FC000
01F0F000
07C07C00
0F803E00
1F001F00
3F001F80
3F001F80
7E000FC0
7E000FC0
7E000FE0
FE000FE0
FE000FE0
FE000FE0
FE000FE0
FE000FE0
FE000FE0
7E000FC0
7E000FC0
7E000FC0
3F001F80
3F001F80
1F001F00
0F803E00
07C07C00
01F1F000
007FC000
ENDCHAR

STARTCHAR Oacute
ENCODING 211
SWIDTH 778 0
DWIDTH 30 0
BBX 27 34 1 0
BITMAP
0003E000
0007C000
00078000
000F0000
000E0000
000C0000
00180000
00000000
007FC000
01F0F000
07C07C00
0F803E00
1F001F00
3F001F80
3F001F80
7E000FC0
7E000FC0
7E000FE0
FE000FE0
FE000FE0
FE000FE0
FE000FE0
FE000FE0
FE000FE0
7E000FC0
7E000FC0
7E000FC0
3F001F80
3F001F80
1F001F00
0F803E00
07C07C00
01F1F000
007FC000
ENDCHAR

STARTCHAR Ocircumflex
ENCODING 212
SWIDTH 778 0
DWIDTH 30 0
BBX 27 34 1 0
BITMAP
001F0000
001F8000
003F8000
007BC000
0071C000
00E0E000
00C02000
00000000
007FC000
01F0F000
07C07C00
0F803E00
1F001F00
3F001F80
3F001F80
7E000FC0
7E000FC0
7E000FE0
FE000FE0
FE000FE0
FE000FE0
FE000FE0
FE000FE0
FE000FE0
7E000FC0
7E000FC0
7E000FC0
3F001F80
3F001F80
1F001F00
0F803E00
07C07C00
01F1F000
007FC000
ENDCHAR

STARTCHAR Otilde
ENCODING 213
SWIDTH 778 0
DWIDTH 30 0
BBX 27 33 1 0
BITMAP
007C3000
00FF2000
00FFE000
009FE000
0087C000
00000000
00000000
007FC000
01F0F000
07C07C00
0F803E00
1F001F00
3F001F80
3F001F80
7E000FC0
7E000FC0
7E000FE0
FE000FE0
FE000FE0
FE000FE0
FE000FE0
FE000FE0
FE000FE0
7E000FC0
7E000FC0
7E000FC0
3F001F80
3F001F80
1F001F00
0F803E00
07C07C00
01F1F000
007FC000
ENDCHAR

STARTCHAR Odieresis
ENCODING 214
SWIDTH 778 0
DWIDTH 30 0
BBX 27 33 1 0
BITMAP
0070E000
00F9F000
00F9F000
00F9F000
0070E000
00000000
00000000
007FE000
01F0F800
07C03C00
0F801E00
1F801F00
3F000F80
3F000F80
7F000FC0
7E000FC0
7E000FE0
FE000FE0
FE000FE0
FE000FE0
FE000FE0
FE000FE0
FE000FE0
7E000FC0
7E000FC0
7F000FC0
3F000F80
3F001F80
1F801F00
0F803E00
07C03C00
01F0F800
007FC000
ENDCHAR

STARTCHAR multiply
ENCODING 215
SWIDTH 570 0
DWIDTH 22 0
BBX 16 17 3 4
BITMAP
4002
E007
F00F
781E
3C3C
1E78
0F70
07E0
03C0
07E0
0EF0
1C78
383C
701E
E00F
C006
4002
ENDCHAR

STARTCHAR Oslash
ENCODING 216
SWIDTH 778 0
DWIDTH 30 0
BBX 27 28 1 -1
BITMAP
000000C0
007FC180
01F0F300
07C07E00
0F803E00
1F001F00
3F001F80
3F003F80
7E006FC0
7E00CFC0
7E008FE0
FE018FE0
FE030FE0
FE060FE0
FE0C0FE0
FE180FE0
FE300FE0
7E200FC0
7E600FC0
7EC00FC0
3F801F80
3F001F80
1F001F00
0F803E00
1FC07C00
19F1F000
707FC000
20000000
ENDCHAR

STARTCHAR Ugrave
ENCODING 217
SWIDTH 722 0
DWIDTH 27 0
BBX 25 34 1 0
BITMAP
01F80000
00F80000
00780000
003C0000
001C0000
000C0000
00060000
00000000
FFF87F80
3FC01E00
1F800C00
1F800C00
1F800C00
1F800C00
1F800C00
1F800C00
1F800C00
1F800C00
1F800C00
1F800C00
1F800C00
1F800C00
1F800C00
1F800C00
1F800C00
1F800C00
1F800C00
1F800C00
1F801800
0FC01800
0FC03000
07F06000
03FFC000
007F0000
ENDCHAR

STARTCHAR Uacute
ENCODING 218
SWIDTH 722 0
DWIDTH 27 0
BBX 25 34 1 0
BITMAP
000FC000
000F8000
000F0000
001E0000
001C0000
00180000
00300000
00000000
FFF87F80
3FC01E00
1F800C00
1F800C00
1F800C00
1F800C00
1F800C00
1F800C00
1F800C00
1F800C00
1F800C00
1F800C00
1F800C00
1F800C00
1F800C00
1F800C00
1F800C00
1F800C00
1F800C00
1F800C00
1F801800
0FC01800
0FC03000
07F06000
03FFC000
007F0000
ENDCHAR

STARTCHAR Ucircumflex
ENCODING 219
SWIDTH 722 0
DWIDTH 27 0
BBX 25 34 1 0
BITMAP
003E0000
003F0000
007F0000
00F78000
00E38000
01C0C000
01004000
00000000
FFF87F80
3FC01E00
1F800C00
1F800C00
1F800C00
1F800C00
1F800C00
1F800C00
1F800C00
1F800C00
1F800C00
1F800C00
1F800C00
1F800C00
1F800C00
1F800C00
1F800C00
1F800C00
1F800C00
1F800C00
1F801800
0FC01800
0FC03000
07F06000
03FFC000
007F0000
ENDCHAR

STARTCHAR Udieresis
ENCODING 220
SWIDTH 722 0
DWIDTH 27 0
BBX 26 33 1 0
BITMAP
00E1C000
01F3E000
01F3E000
01F3E000
00E1C000
00000000
00000000
FFF87FC0
3FC00F00
1F800600
1F800600
1F800600
1F800600
1F800600
1F800600
1F800600
1F800600
1F800600
1F800600
1F800600
1F800600
1F800600
1F800600
1F800600
1F800600
1F800600
1F800600
1F800C00
0FC00C00
0FC01800
07F07000
03FFE000
007F0000
ENDCHAR

STARTCHAR Idotaccent
ENCODING 221
SWIDTH 389 0
DWIDTH 15 0
BBX 14 33 1 0
BITMAP
0700
0F80
0F80
0F80
0700
0000
0000
FFFC
1FE0
0FC0
0FC0
0FC0
0FC0
0FC0
0FC0
0FC0
0FC0
0FC0
0FC0
0FC0
0FC0
0FC0
0FC0
0FC0
0FC0
0FC0
0FC0
0FC0
0FC0
0FC0
0FC0
1FE0
FFFC
ENDCHAR

STARTCHAR Scedilla
ENCODING 222
SWIDTH 556 0
DWIDTH 21 0
BBX 17 33 2 -7
BITMAP
0FE200
1C3A00
380E00
700600
F00600
F00300
F80300
FC0100
FE0000
FF8000
7FE000
3FF800
3FFC00
0FFE00
03FF00
01FF80
007F80
801F80
800F80
C00780
C00780
E00700
F00700
F80E00
FE3C00
87F000
008000
01C000
03E000
00E000
00E000
01C000
070000
ENDCHAR

STARTCHAR germandbls
ENCODING 223
SWIDTH 556 0
DWIDTH 21 0
BBX 18 26 1 0
BITMAP
03FC00
0F1E00
1E0F00
1E0F80
3E0F80
3E0F80
3E0F80
3E0F80
3E0F00
3E1A00
3E3C00
3E0F00
3E0780
3E0780
3E07C0
3E07C0
3E07C0
3E07C0
3E07C0
3E07C0
3E07C0
3E73C0
3E7380
3E7380
7E7F00
FE1800
ENDCHAR

STARTCHAR agrave
ENCODING 224
SWIDTH 500 0
DWIDTH 19 0
BBX 17 26 1 0
BITMAP
1F8000
07C000
03C000
01C000
00E000
006000
000000
000000
07F000
1C7C00
383E00
7C3E00
7C3E00
7C3E00
3C3E00
00FE00
03BE00
0F3E00
1E3E00
3C3E00
7C3E00
FC3E00
FE7E00
FFDF80
7F3F80
3E1E00
ENDCHAR

STARTCHAR aacute
ENCODING 225
SWIDTH 500 0
DWIDTH 19 0
BBX 17 26 1 0
BITMAP
007E00
007800
00F000
00E000
00C000
018000
000000
000000
07F000
1C7C00
383E00
7C3E00
7C3E00
7C3E00
3C3E00
00FE00
03BE00
0F3E00
1E3E00
3C3E00
7C3E00
FC3E00
FE7E00
FFDF80
7F3F80
3E1E00
ENDCHAR

STARTCHAR acircumflex
ENCODING 226
SWIDTH 500 0
DWIDTH 19 0
BBX 17 27 1 0
BITMAP
01F000
03F000
03F800
07B800
073C00
0E0C00
180600
000000
000000
07F000
1C7C00
383E00
7C3E00
7C3E00
7C3E00
3C3E00
00FE00
03BE00
0F3E00
1E3E00
3C3E00
7C3E00
FC3E00
FE7E00
FFDF80
7F3F80
3E1E00
ENDCHAR

STARTCHAR atilde
ENCODING 227
SWIDTH 500 0
DWIDTH 19 0
BBX 17 26 1 0
BITMAP
078200
0FE600
1FFE00
1FFE00
19FC00
103000
000000
000000
07F000
1C7C00
383E00
7C3E00
7C3E00
7C3E00
3C3E00
00FE00
03BE00
0F3E00
1E3E00
3C3E00
7C3E00
FC3E00
FE7E00
FFDF80
7F3F80
3E1E00
ENDCHAR

STARTCHAR adieresis
ENCODING 228
SWIDTH 500 0
DWIDTH 19 0
BBX 17 26 1 0
BITMAP
0E1800
1F3C00
1F3E00
1F3C00
0E1C00
000000
000000
000000
0FF000
1C7800
387C00
7C7C00
7C7E00
7C7E00
3C7E00
00FE00
03BE00
0F7E00
1E7E00
3C7E00
7C7E00
FC7E00
FE7E00
FFFE80
7F3F00
3E1E00
ENDCHAR

STARTCHAR aring
ENCODING 229
SWIDTH 500 0
DWIDTH 19 0
BBX 17 27 1 0
BITMAP
03E000
067000
041000
0C1000
0C1000
043000
077000
03C000
000000
07F000
1C7C00
383C00
783E00
7C3E00
7C3E00
383E00
00FE00
03BE00
0F3E00
1C3E00
3C3E00
783E00
FC3E00
FC7E00
FFDE80
7F3F00
3C1E00
ENDCHAR

STARTCHAR ae
ENCODING 230
SWIDTH 722 0
DWIDTH 27 0
BBX 24 18 2 0
BITMAP
0FE3F8
38F73C
707E1E
F83E0E
F83E0F
F83C0F
703C0F
01FFFF
073C00
0E3E00
3C3E00
783E00
F83F01
F81F01
FC7FC2
FFCFFE
7F87FC
3C03F0
ENDCHAR

STARTCHAR ccedilla
ENCODING 231
SWIDTH 444 0
DWIDTH 17 0
BBX 14 25 2 -7
BITMAP
07E0
1CF8
3C78
787C
787C
7878
F800
F800
F800
F800
FC00
FC00
7C00
7E04
3F08
3FF8
1FE0
0780
0100
03C0
07E0
01E0
01E0
03C0
1F80
ENDCHAR

STARTCHAR egrave
ENCODING 232
SWIDTH 444 0
DWIDTH 17 0
BBX 15 26 1 0
BITMAP
3F00
0F00
0780
0380
0180
00C0
0000
0000
07E0
0E70
1C38
3C3C
783C
783E
783E
FFFE
F800
FC00
FC00
7C00
7E02
7E04
3F0C
3FF8
0FF0
07C0
ENDCHAR

STARTCHAR eacute
ENCODING 233
SWIDTH 444 0
DWIDTH 17 0
BBX 15 26 1 0
BITMAP
01F8
01F0
01E0
03C0
0380
0300
0000
0000
07E0
0E70
1C38
3C3C
783C
783E
783E
FFFE
F800
FC00
FC00
7C00
7E02
7E04
3F0C
3FF8
0FF0
07C0
ENDCHAR

STARTCHAR ecircumflex
ENCODING 234
SWIDTH 444 0
DWIDTH 17 0
BBX 15 27 1 0
BITMAP
07C0
07E0
0FE0
0FF0
1E70
1838
301C
0000
0000
07E0
0E70
1C38
3C3C
783C
783E
783E
FFFE
F800
FC00
FC00
7C00
7E02
7E04
3F0C
3FF8
0FF0
07C0
ENDCHAR

STARTCHAR edieresis
ENCODING 235
SWIDTH 444 0
DWIDTH 17 0
BBX 14 26 2 0
BITMAP
3870
7CF8
7CF8
7CF8
3870
0000
0000
0000
0FC0
1C70
3878
7838
783C
F83C
F83C
FFFC
F800
F800
F800
F800
FC04
7E04
7F18
3FF8
1FF0
07C0
ENDCHAR

STARTCHAR igrave
ENCODING 236
SWIDTH 278 0
DWIDTH 11 0
BBX 10 27 0 0
BITMAP
F800
7C00
3C00
1E00
0E00
0600
0300
0000
0000
7F00
1F00
1F00
1F00
1F00
1F00
1F00
1F00
1F00
1F00
1F00
1F00
1F00
1F00
1F00
1F00
3F80
7FC0
ENDCHAR

STARTCHAR iacute
ENCODING 237
SWIDTH 278 0
DWIDTH 11 0
BBX 10 27 1 0
BITMAP
0FC0
0F80
0F00
1E00
1C00
1800
3000
0000
0000
FE00
3E00
3E00
3E00
3E00
3E00
3E00
3E00
3E00
3E00
3E00
3E00
3E00
3E00
3E00
3E00
7F00
FF80
ENDCHAR

STARTCHAR icircumflex
ENCODING 238
SWIDTH 278 0
DWIDTH 11 0
BBX 11 27 0 0
BITMAP
1F00
1F80
3F80
3BC0
71C0
E0E0
C060
0000
0000
7F00
1F00
1F00
1F00
1F00
1F00
1F00
1F00
1F00
1F00
1F00
1F00
1F00
1F00
1F00
1F00
3F80
7FC0
ENDCHAR

STARTCHAR idieresis
ENCODING 239
SWIDTH 278 0
DWIDTH 11 0
BBX 12 26 -1 0
BITMAP
70E0
F9F0
F9F0
F9F0
70E0
0000
0000
0000
3F80
0F80
0F80
0F80
0F80
0F80
0F80
0F80
0F80
0F80
0F80
0F80
0F80
0F80
0F80
0F80
1FC0
3FE0
ENDCHAR

STARTCHAR gbreve
ENCODING 240
SWIDTH 500 0
DWIDTH 19 0
BBX 17 34 2 -8
BITMAP
100400
180C00
1FFC00
0FF800
07F000
01C000
000000
000000
0FC000
3C7F80
7C3B80
783C00
F83E00
F83E00
F83E00
F83E00
F83E00
783C00
3C3C00
1C7800
07E000
180000
300000
700000
7FF800
7FFF00
7FFF00
1FFF80
3FFF80
E00380
E00380
E00700
781E00
1FF800
ENDCHAR

STARTCHAR ntilde
ENCODING 241
SWIDTH 556 0
DWIDTH 21 0
BBX 19 26 1 0
BITMAP
07C300
0FF300
0FFE00
1DFE00
187C00
000000
000000
000000
001C00
FE7F00
3EFF00
3F9F80
3F0F80
3E0F80
3E0F80
3E0F80
3E0F80
3E0F80
3E0F80
3E0F80
3E0F80
3E0F80
3E0F80
3E0F80
3F1F80
FFBFE0
ENDCHAR

STARTCHAR ograve
ENCODING 242
SWIDTH 500 0
DWIDTH 19 0
BBX 16 26 2 0
BITMAP
3F00
0F80
0780
0380
01C0
00C0
0000
0000
07E0
1E78
3C3C
7C3E
781E
F81F
F81F
F81F
F81F
F81F
F81F
F81F
F81F
7C1E
7C3E
3C3C
1E78
07E0
ENDCHAR

STARTCHAR oacute
ENCODING 243
SWIDTH 500 0
DWIDTH 19 0
BBX 16 26 2 0
BITMAP
00FC
01F0
01E0
01C0
0380
0300
0000
0000
07E0
1E78
3C3C
7C3E
781E
F81F
F81F
F81F
F81F
F81F
F81F
F81F
F81F
7C1E
7C3E
3C3C
1E78
07E0
ENDCHAR

STARTCHAR ocircumflex
ENCODING 244
SWIDTH 500 0
DWIDTH 19 0
BBX 16 27 2 0
BITMAP
03C0
07E0
07E0
0F70
0E78
1C18
300C
0000
0000
07E0
1E78
3C3C
7C3E
781E
F81F
F81F
F81F
F81F
F81F
F81F
F81F
F81F
7C1E
7C3E
3C3C
1E78
07E0
ENDCHAR

STARTCHAR otilde
ENCODING 245
SWIDTH 500 0
DWIDTH 19 0
BBX 16 26 2 0
BITMAP
0F84
1FEC
3FFC
37F8
21F0
0000
0000
0000
07E0
1E78
3C3C
7C3E
781E
F81F
F81F
F81F
F81F
F81F
F81F
F81F
F81F
7C1E
7C3E
3C3C
1E78
07E0
ENDCHAR

STARTCHAR odieresis
ENCODING 246
SWIDTH 500 0
DWIDTH 19 0
BBX 16 26 2 0
BITMAP
1C38
3E7C
3E7C
3E7C
1C38
0000
0000
0000
07E0
1E78
3C3C
7C3E
781E
F81F
F81F
F81F
F81F
F81F
F81F
F81F
F81F
7C1E
7C3E
3C3C
1E78
07E0
ENDCHAR

STARTCHAR divide
ENCODING 247
SWIDTH 570 0
DWIDTH 22 0
BBX 20 16 1 5
BITMAP
006000
00F000
00F000
006000
000000
000000
000000
FFFFF0
FFFFF0
000000
000000
000000
006000
00F000
00F000
006000
ENDCHAR

STARTCHAR oslash
ENCODING 248
SWIDTH 500 0
DWIDTH 19 0
BBX 16 18 2 0
BITMAP
07E1
1E7A
3C3E
7C3E
781E
F83F
F87F
F8DF
F89F
F91F
FB1F
FE1F
FC1F
7C1E
3C3E
7C3C
5E78
87E0
ENDCHAR

STARTCHAR ugrave
ENCODING 249
SWIDTH 556 0
DWIDTH 21 0
BBX 19 27 1 0
BITMAP
0F8000
07C000
03C000
01E000
00E000
006000
003000
000000
000000
FE3F80
3E1F80
3E0F80
3E0F80
3E0F80
3E0F80
3E0F80
3E0F80
3E0F80
3E0F80
3E0F80
3E0F80
3E0F80
3E1F80
3F1F80
1FEF80
1FCFC0
070FE0
ENDCHAR

STARTCHAR uacute
ENCODING 250
SWIDTH 556 0
DWIDTH 21 0
BBX 19 27 1 0
BITMAP
003E00
007C00
007800
00F000
00E000
00C000
018000
000000
000000
FE3F80
3E1F80
3E0F80
3E0F80
3E0F80
3E0F80
3E0F80
3E0F80
3E0F80
3E0F80
3E0F80
3E0F80
3E0F80
3E1F80
3F1F80
1FEF80
1FCFC0
070FE0
ENDCHAR

STARTCHAR ucircumflex
ENCODING 251
SWIDTH 556 0
DWIDTH 21 0
BBX 19 27 1 0
BITMAP
01F000
01F800
03F800
07BC00
071C00
0E0E00
1C0700
000000
000000
FE3F80
3E1F80
3E0F80
3E0F80
3E0F80
3E0F80
3E0F80
3E0F80
3E0F80
3E0F80
3E0F80
3E0F80
3E0F80
3E1F80
3F1F80
1FEF80
1FCFC0
070FE0
ENDCHAR

STARTCHAR udieresis
ENCODING 252
SWIDTH 556 0
DWIDTH 21 0
BBX 18 26 2 0
BITMAP
0E1C00
1F3E00
1F3E00
1F3E00
0E1C00
000000
000000
000000
FE7F00
3E3F00
3E1F00
3E1F00
3E1F00
3E1F00
3E1F00
3E1F00
3E1F00
3E1F00
3E1F00
3E1F00
3E1F00
3E1F00
3E3F00
1FEF00
1FDF80
071FC0
ENDCHAR

STARTCHAR dotlessi
ENCODING 253
SWIDTH 278 0
DWIDTH 11 0
BBX 9 18 1 0
BITMAP
FE00
7E00
3E00
3E00
3E00
3E00
3E00
3E00
3E00
3E00
3E00
3E00
3E00
3E00
3E00
3E00
7F00
FF80
ENDCHAR

STARTCHAR scedilla
ENCODING 254
SWIDTH 389 0
DWIDTH 15 0
BBX 12 25 2 -7
BITMAP
1F20
79E0
7060
F060
F820
FC20
FF00
7F80
3FC0
1FE0
0FF0
07F0
81F0
C0F0
C0F0
E0E0
79C0
5F80
0400
0F00
0F00
0700
0700
0E00
3800
ENDCHAR

STARTCHAR ydieresis
ENCODING 255
SWIDTH 500 0
DWIDTH 19 0
BBX 18 34 1 -8
BITMAP
0E1C00
1F3E00
1F3E00
1F3E00
0E1C00
000000
000000
000000
FF8FC0
7F0380
3E0300
3F0200
1F0200
1F8600
0F8400
0F8400
0FCC00
07C800
07E800
03F000
03F000
01F000
01E000
01E000
00E000
00C000
004000
008000
308000
798000
790000
7B0000
7E0000
180000
ENDCHAR
ENDFONT
